<?xml version="1.0" encoding="UTF-8" standalone="no"?>
<!-- Generator: Adobe Illustrator 25.2.3, SVG Export Plug-In . SVG Version: 6.00 Build 0)  -->

<svg
   xmlns:osb="http://www.openswatchbook.org/uri/2009/osb"
   xmlns:dc="http://purl.org/dc/elements/1.1/"
   xmlns:cc="http://creativecommons.org/ns#"
   xmlns:rdf="http://www.w3.org/1999/02/22-rdf-syntax-ns#"
   xmlns:svg="http://www.w3.org/2000/svg"
   xmlns="http://www.w3.org/2000/svg"
   xmlns:sodipodi="http://sodipodi.sourceforge.net/DTD/sodipodi-0.dtd"
   xmlns:inkscape="http://www.inkscape.org/namespaces/inkscape"
   version="1.2"
   id="Ebene_1"
   x="0px"
   y="0px"
   viewBox="0 0 841.9 595.3"
   overflow="visible"
   xml:space="preserve"
   sodipodi:docname="cdtcloud-blueprint.svg"
   inkscape:export-filename="/home/philip/Downloads/cdtcloud-20220421T073359Z-001/logos/cdtcloud-blueprint.png"
   inkscape:export-xdpi="96"
   inkscape:export-ydpi="96"
   inkscape:version="0.92.5 (2060ec1f9f, 2020-04-08)"
   enable-background="new"><metadata
   id="metadata23"><rdf:RDF><cc:Work
       rdf:about=""><dc:format>image/svg+xml</dc:format><dc:type
         rdf:resource="http://purl.org/dc/dcmitype/StillImage" /></cc:Work></rdf:RDF></metadata><defs
   id="defs21"><linearGradient
     id="linearGradient2351"
     osb:paint="solid"><stop
       style="stop-color:#000000;stop-opacity:1;"
       offset="0"
       id="stop2349" /></linearGradient><meshgradient
     inkscape:collect="always"
     id="meshgradient2760"
     gradientUnits="userSpaceOnUse"
     x="749.45471"
     y="-0.38880286"><meshrow
       id="meshrow2762"><meshpatch
         id="meshpatch2764"><stop
           path="c 33.3368,0  66.6736,0  100.01,0"
           style="stop-color:#ffffff;stop-opacity:1"
           id="stop2766" /><stop
           path="c 0,82.1249  0,164.25  0,246.375"
           style="stop-color:#53e3ff;stop-opacity:1"
           id="stop2768" /><stop
           path="c -33.3368,0  -66.6736,0  -100.01,0"
           style="stop-color:#ffffff;stop-opacity:1"
           id="stop2770" /><stop
           path="c 0,-82.1249  0,-164.25  0,-246.375"
           style="stop-color:#53e3ff;stop-opacity:1"
           id="stop2772" /></meshpatch></meshrow></meshgradient></defs><sodipodi:namedview
   pagecolor="#ffffff"
   bordercolor="#666666"
   borderopacity="1"
   objecttolerance="10"
   gridtolerance="10"
   guidetolerance="10"
   inkscape:pageopacity="0"
   inkscape:pageshadow="2"
   inkscape:window-width="2504"
   inkscape:window-height="1376"
   id="namedview19"
   showgrid="false"
   showguides="true"
   inkscape:guide-bbox="true"
   inkscape:zoom="0.79287756"
   inkscape:cx="768.70528"
   inkscape:cy="422.91302"
   inkscape:window-x="2616"
   inkscape:window-y="187"
   inkscape:window-maximized="1"
   inkscape:current-layer="g16"><sodipodi:guide
     position="-283.59984,280.03256"
     orientation="1,0"
     id="guide4843"
     inkscape:locked="false" /><sodipodi:guide
     position="387.05136,346.0275"
     orientation="0,1"
     id="guide4845"
     inkscape:locked="false" /><sodipodi:guide
     position="447.69535,410.23879"
     orientation="1,0"
     id="guide4847"
     inkscape:locked="false" /><sodipodi:guide
     position="721.48515,626.50595"
     orientation="1,0"
     id="guide827"
     inkscape:locked="false" /><sodipodi:guide
     position="447.7362,267.38051"
     orientation="1,0"
     id="guide829"
     inkscape:locked="false" /><sodipodi:guide
     position="838.314,346.0275"
     orientation="0,1"
     id="guide2748"
     inkscape:locked="false" /></sodipodi:namedview>
<g
   id="g16">
	
	
	
	
	


<g
   id="g845"
   inkscape:export-xdpi="96"
   inkscape:export-ydpi="96"><path
     inkscape:connector-curvature="0"
     style="fill:#008cc7;fill-opacity:0.94117647"
     id="path2"
     d="M 327.57243,249.27808 H 86.572435 c -45.3,0 -82.2000003,-36.9 -82.2000003,-82.2 0,-41.7 31.0000003,-76.300002 71.6000003,-81.600002 5.1,-28.4 30.099995,-49.8 59.599995,-49.8 11,0 21.4,2.9 30.7,8.3 19.7,-26.6 50.6,-42.2999998 84.1,-42.2999998 34.4,0 66.3,16.6999998 85.9,44.7999998 52.4,4.4 92.9,48.1 92.9,101.100002 -0.1,56.2 -45.6,101.7 -101.6,101.7 z m -192,-198.300002 c -23.7,0 -43.499995,18.5 -45.099995,42.1 -0.3,3.9 -3.4,6.9 -7.2,7.100002 -35.6,1.8 -63.5,31.2 -63.5,66.8 0,36.9 30,66.9 66.9,66.9 H 327.67243 c 47.5,0 86.2,-38.7 86.2,-86.2 0,-46.2 -36.1,-84.000002 -82.2,-86.100002 -2.5,-0.1 -4.7,-1.4 -6.1,-3.5 -16.6,-25.7 -44.7,-41.1 -75.2,-41.1 -30.8,0 -59.1,15.6 -75.6,41.7 -1.2,1.8 -3,3.1 -5.2,3.5 -2.1,0.4 -4.3,-0.2 -6,-1.5 -8.1,-6.3 -17.8,-9.7 -28,-9.7 z" /><circle
     style="fill:#53e3ff;fill-opacity:1"
     id="circle4"
     r="10"
     cy="203.37808"
     cx="347.17245" /><path
     inkscape:connector-curvature="0"
     style="fill:#008cc7;fill-opacity:0.94117647"
     id="path6"
     d="m 268.37243,126.57808 h 12.6 l 0.2,61.9 c 0,8.6 2.5,15.5 7.1,19.9 4.7,4.4 11.4,6.4 20,6 5.7,-0.3 9.1,-2.3 11.2,-3.8 l 0.2,-0.2 c 1.7,-1.3 2.7,-3.3 2.7,-5.4 0,-3.7 -3,-6.7 -6.7,-6.7 -0.5,0 -1,0.1 -1.6,0.2 l -0.4,0.1 c -0.4,0.1 -0.6,0.2 -0.9,0.3 -4.8,1.8 -8.8,1.8 -11.6,-0.2 -2.9,-2 -4.4,-5.8 -4.4,-11.1 l 0.2,-61 h 18.2 c 3.6,0 6.6,-2.9 6.6,-6.6 0,-3.7 -2.9,-6.6 -6.6,-6.6 h -18.2 V 92.078078 c 0,-4.4 -3.6,-8 -8,-8 -4.4,0 -8,3.6 -8,8 v 21.300002 h -12.6 c -3.6,0 -6.6,2.9 -6.6,6.6 0,3.7 3,6.6 6.6,6.6 z" /><path
     inkscape:connector-curvature="0"
     style="fill:#008cc8;fill-opacity:0.94117647"
     id="path8"
     d="m 129.17243,144.57808 c -6.8,-18.3 -26.3,-24.9 -40.799995,-24.9 -29.2,0 -48.1,18.8 -48.1,48 0,23 12.7,47.6 48.3,47.6 22.599995,0 38.799995,-10.9 43.199995,-29.1 0.2,-0.9 0.3,-1.5 0.3,-2.1 0,-4.4 -3.5,-7.9 -7.9,-7.9 -3.5,0 -6.5,2.3 -7.5,5.6 l -0.1,0.3 c -4.3,12.8 -12.6,18.5 -26.799995,18.5 -20.8,0 -32.7,-12.2 -32.7,-33.5 0,-21.1 12.2,-33.7 32.7,-33.7 14.599995,0 22.099995,9.2 25.899995,16.9 0.1,0.2 0.1,0.3 0.2,0.4 l 0.3,0.6 c 1.4,2.3 3.8,3.7 6.4,3.7 4.1,0 7.5,-3.3 7.5,-7.5 0,-1 -0.2,-2 -0.6,-2.9 z" /><g
     transform="translate(-204.22757,-172.12192)"
     style="fill:#008cc7;fill-opacity:0.94117647"
     id="g14">
		<polygon
   style="fill:#008cc7;fill-opacity:0.94117647"
   id="polygon10"
   points="451.9,378.9 " />
		<path
   inkscape:connector-curvature="0"
   style="fill:#008cc7;fill-opacity:0.94117647"
   id="path12"
   d="m 443.3,256.3 c -4.4,0 -7.9,3.5 -8,7.9 v 0.5 42.7 h -1.2 l -0.2,-0.2 c -6.2,-8.8 -19.1,-14.3 -33.7,-14.3 -28.9,0 -48.3,18.9 -48.3,46.9 0,28.1 19.4,46.9 48.3,46.9 14.1,0 27.6,-5.8 33.7,-14.3 l 0.2,-0.2 h 1.2 v 6.6 l 0.1,0.4 c 0.2,4.3 3.7,7.6 8,7.6 4.3,0 7.7,-3.3 8,-7.6 v -0.5 -0.1 -114.1 c 0,-4.6 -3.6,-8.2 -8.1,-8.2 z m -15,106.8 c -6,6.8 -14.9,10.4 -25.8,10.4 -24.7,0 -33.5,-18.1 -33.5,-33.6 0,-20.4 13.1,-33.6 33.5,-33.6 20.5,0 33.8,13.2 33.8,33.6 0,9 -2.8,17.3 -8,23.2 z" />
	</g><text
     id="text4819"
     y="115.54134"
     x="436.90393"
     style="font-style:normal;font-variant:normal;font-weight:normal;font-stretch:normal;font-size:146.66667175px;line-height:1.25;font-family:Ubuntu;-inkscape-font-specification:'Ubuntu, Normal';font-variant-ligatures:normal;font-variant-caps:normal;font-variant-numeric:normal;font-feature-settings:normal;text-align:start;letter-spacing:0px;word-spacing:0px;writing-mode:lr-tb;text-anchor:start;fill:#008cc6;fill-opacity:0.94117647;stroke:none;stroke-width:2.96308804;"
     xml:space="preserve"><tspan
       style="font-style:normal;font-variant:normal;font-weight:normal;font-stretch:normal;font-size:146.66667175px;font-family:Ubuntu;-inkscape-font-specification:'Ubuntu, Normal';font-variant-ligatures:normal;font-variant-caps:normal;font-variant-numeric:normal;font-feature-settings:normal;text-align:start;writing-mode:lr-tb;text-anchor:start;fill:#008cc6;fill-opacity:0.94117647;stroke-width:2.96308804;"
       id="tspan4821"
       y="115.54134"
       x="436.90393"
       sodipodi:role="line">blue</tspan></text>
<text
     transform="scale(0.98640959,1.0137777)"
     id="text4819-9"
     y="221.55579"
     x="444.19986"
     style="font-style:normal;font-variant:normal;font-weight:normal;font-stretch:normal;font-size:131.52127075px;line-height:1.25;font-family:Ubuntu;-inkscape-font-specification:'Ubuntu, Normal';font-variant-ligatures:normal;font-variant-caps:normal;font-variant-numeric:normal;font-feature-settings:normal;text-align:start;letter-spacing:0px;word-spacing:0px;writing-mode:lr-tb;text-anchor:start;fill:#008cc7;fill-opacity:0.94117647;stroke:none;stroke-width:2.92281842"
     xml:space="preserve"><tspan
       style="font-style:normal;font-variant:normal;font-weight:normal;font-stretch:normal;font-size:131.52127075px;font-family:Ubuntu;-inkscape-font-specification:'Ubuntu, Normal';font-variant-ligatures:normal;font-variant-caps:normal;font-variant-numeric:normal;font-feature-settings:normal;text-align:start;writing-mode:lr-tb;text-anchor:start;fill:#008cc7;fill-opacity:0.94117647;stroke-width:2.92281842"
       id="tspan4821-8"
       y="221.55579"
       x="444.19986"
       sodipodi:role="line">print</tspan></text>
<circle
     style="fill:#53e3ff;fill-opacity:1"
     id="circle4-6"
     r="10"
     cy="135.09268"
     cx="580.36072" /></g><rect
   style="fill:none;fill-opacity:1;stroke:none;stroke-width:20;stroke-linecap:round;stroke-miterlimit:4;stroke-dasharray:none;stroke-opacity:0.8309179;paint-order:stroke fill markers"
   id="rect2809"
   width="721.82202"
   height="249.71054"
   x="-0.33685693"
   y="-0.43806028" /><rect
   style="fill:none;fill-opacity:1;stroke:none;stroke-width:20;stroke-linecap:round;stroke-miterlimit:4;stroke-dasharray:none;stroke-opacity:0.8309179;paint-order:stroke fill markers"
   id="rect2813"
   width="467.31546"
   height="223.84769"
   x="490.50287"
   y="-212.69203" /></g>
</svg>